<svg width="21" height="14" viewBox="0 0 21 14" fill="none" xmlns="http://www.w3.org/2000/svg">
<g clip-path="url(#clip0_1_13370)">
<mask id="mask0_1_13370" style="mask-type:luminance" maskUnits="userSpaceOnUse" x="0" y="0" width="21" height="14">
<path d="M0.900391 0.853683H20.7004V13.2195H0.900391V0.853683Z" fill="white"/>
</mask>
<g mask="url(#mask0_1_13370)">
<path fill-rule="evenodd" clip-rule="evenodd" d="M0.281616 0.853683H22.5566V13.2195H0.281616V0.853683Z" fill="white"/>
<path fill-rule="evenodd" clip-rule="evenodd" d="M0.281616 0.853683H22.5566V7.03661H0.281616V0.853683Z" fill="#DF0000"/>
<path fill-rule="evenodd" clip-rule="evenodd" d="M5.41721 1.88932C4.83119 1.99419 4.30634 2.26375 3.93079 2.65276C3.55523 3.04176 3.35182 3.52652 3.35473 4.02564C3.35763 4.52476 3.56666 5.00785 3.94673 5.39381C4.32679 5.77977 4.85475 6.04509 5.44196 6.14523C5.10556 6.22629 4.75326 6.25125 4.40526 6.21868C4.05726 6.18611 3.7204 6.09665 3.414 5.95544C3.10761 5.81423 2.8377 5.62404 2.61977 5.39577C2.40184 5.16751 2.24016 4.90567 2.14402 4.62526C1.95306 4.06161 2.03788 3.45792 2.37993 2.9462C2.72198 2.43447 3.29342 2.05634 3.96933 1.89447C4.46433 1.77596 4.92221 1.77339 5.4203 1.88932H5.41721Z" fill="white"/>
<path fill-rule="evenodd" clip-rule="evenodd" d="M5.01511 3.68753L5.1667 4.07396L4.76451 3.83695L4.36851 4.07912L4.51392 3.68753L4.11792 3.44794L4.60983 3.44279L4.76451 3.05636L4.9192 3.44279H5.40801L5.01511 3.68753ZM5.55651 5.02717L5.7112 5.41617L5.30901 5.17916L4.90992 5.41875L5.05842 5.02974L4.66242 4.78758L5.15433 4.785L5.30592 4.39599L5.46061 4.78242H5.95561L5.55651 5.02717ZM7.36636 5.01686L7.51795 5.40845L7.11576 5.16886L6.71976 5.40845L6.86517 5.01944L6.46917 4.77985L6.96108 4.7747L7.11576 4.38826L7.27045 4.7747H7.75926L7.36636 5.01686ZM7.90467 3.68753L8.05626 4.07654L7.65408 3.83953L7.25808 4.07912L7.40658 3.69011L7.00748 3.44794L7.50248 3.44537L7.65098 3.05636L7.80567 3.44279H8.30067L7.90467 3.68753ZM6.47226 2.80389L6.62695 3.19547L6.22476 2.95588L5.82567 3.19805L5.97417 2.80646L5.57817 2.5643L6.06698 2.56172L6.22167 2.17271L6.37636 2.55915H6.87136L6.47226 2.80389Z" fill="white"/>
</g>
</g>
<rect x="1.00039" y="0.953683" width="19.6" height="12.1659" rx="1.9" stroke="#CDCBCB" stroke-width="0.2"/>
<defs>
<clipPath id="clip0_1_13370">
<rect x="0.900391" y="0.853683" width="19.8" height="12.3659" rx="2" fill="white"/>
</clipPath>
</defs>
</svg>
