<?xml version="1.0" standalone="no"?>
<!DOCTYPE svg PUBLIC "-//W3C//DTD SVG 20010904//EN"
 "http://www.w3.org/TR/2001/REC-SVG-20010904/DTD/svg10.dtd">
<svg version="1.0" xmlns="http://www.w3.org/2000/svg"
 width="1200.000000pt" height="800.000000pt" viewBox="0 0 1200.000000 800.000000"
 preserveAspectRatio="xMidYMid meet">

<g transform="translate(0.000000,800.000000) scale(0.100000,-0.100000)"
fill="#000000" stroke="none">
<path d="M0 6000 l0 -2000 6000 0 6000 0 0 2000 0 2000 -6000 0 -6000 0 0
-2000z m2809 1450 l64 -13 -115 -37 c-246 -81 -412 -183 -593 -364 -221 -222
-352 -470 -411 -776 -24 -129 -25 -389 -1 -515 84 -434 343 -803 713 -1016
105 -61 179 -93 309 -134 l100 -32 -75 -14 c-117 -22 -441 -19 -555 5 -594
125 -1041 580 -1161 1181 -25 125 -25 405 0 530 67 336 223 611 478 841 204
183 505 321 778 357 67 9 405 -1 469 -13z m577 -355 l39 -125 138 0 c75 0 137
-3 137 -7 0 -5 -49 -43 -109 -86 l-109 -77 39 -122 c22 -67 38 -125 37 -130
-2 -5 -50 25 -107 67 -57 41 -107 75 -111 75 -4 0 -54 -34 -111 -75 -57 -42
-105 -72 -107 -67 -1 5 15 63 37 130 l39 122 -109 77 c-60 43 -109 81 -109 86
0 4 62 7 138 7 l137 0 39 125 c22 69 42 125 46 125 4 0 24 -56 46 -125z m-801
-592 l38 -122 139 -3 139 -3 -111 -79 c-93 -67 -109 -83 -104 -100 3 -12 21
-69 40 -127 19 -58 34 -109 34 -113 0 -3 -50 30 -111 75 l-111 81 -47 -33
c-25 -18 -75 -55 -111 -81 -35 -26 -66 -46 -67 -44 -2 1 15 56 37 121 22 66
40 125 40 131 0 7 -48 48 -107 91 l-108 78 137 3 137 3 42 130 c23 71 46 126
49 122 4 -4 25 -63 45 -130z m1605 5 l41 -127 137 -3 137 -3 -107 -78 c-60
-43 -108 -84 -108 -91 0 -6 18 -65 40 -131 22 -65 39 -120 37 -121 -1 -2 -32
18 -67 44 -36 26 -86 63 -111 81 l-47 33 -111 -81 c-61 -45 -111 -78 -111 -75
0 4 15 55 34 113 19 58 37 115 40 127 5 18 -10 33 -104 100 l-111 79 139 3
139 3 38 122 c38 124 45 141 50 135 2 -2 22 -60 45 -130z m-1124 -1068 c74 0
134 -3 134 -7 0 -5 -47 -42 -105 -83 -58 -41 -105 -79 -105 -85 0 -6 18 -64
40 -130 22 -65 38 -120 36 -123 -3 -3 -138 92 -211 149 -6 4 -57 -27 -119 -72
-61 -43 -111 -77 -113 -75 -2 2 15 61 37 131 23 70 40 128 38 129 -2 1 -52 38
-113 82 l-110 79 141 3 140 3 43 132 44 132 44 -132 45 -133 134 0z m815 130
l43 -129 140 -3 141 -3 -110 -79 c-61 -44 -111 -81 -113 -82 -2 -1 15 -59 38
-129 22 -70 39 -129 37 -131 -2 -2 -52 32 -113 75 -62 45 -113 76 -119 72 -73
-57 -208 -152 -211 -149 -2 3 14 58 36 123 22 66 40 124 40 130 0 6 -47 44
-105 85 -57 41 -105 78 -105 83 0 4 60 7 134 7 l135 0 43 130 c23 72 43 130
45 130 1 0 21 -58 44 -130z"/>
</g>
</svg>
